<svg xmlns="http://www.w3.org/2000/svg">

  <symbol id="home" width="24" height="24" viewBox="0 0 24 24" fill="currentColor">
    <path fill-rule="evenodd" clip-rule="evenodd"
      d="M13.3287 3.51558C13.3873 3.56764 13.4428 3.6231 13.4948 3.68167L19.4948 10.4317C19.8202 10.7978 20 11.2706 20 11.7604V19C20 20.1046 19.1046 21 18 21H14.002C14.0013 21 14.0007 21 14 21H10C9.99934 21 9.99868 21 9.99803 21H6C4.89543 21 4 20.1046 4 19V11.7604C4 11.2706 4.17976 10.7978 4.50518 10.4317L10.5052 3.68167C11.239 2.8561 12.5032 2.78174 13.3287 3.51558ZM11 19H13V15H11V19ZM15 19V14C15 13.4477 14.5523 13 14 13H10C9.44772 13 9 13.4477 9 14V19H6V11.7604L12 5.0104L18 11.7604V19H15Z" />
  </symbol>

  <symbol id="request" width="24" height="24" viewBox="0 0 24 24" fill="currentColor">
    <path fill-rule="evenodd" clip-rule="evenodd"
      d="M6 15V17H4V15H6ZM19 15C19.5523 15 20 15.4477 20 16C20 16.5523 19.5523 17 19 17H9C8.44772 17 8 16.5523 8 16C8 15.4477 8.44772 15 9 15H19ZM6 11V13H4V11H6ZM19 11C19.5523 11 20 11.4477 20 12C20 12.5523 19.5523 13 19 13H9C8.44772 13 8 12.5523 8 12C8 11.4477 8.44772 11 9 11H19ZM6 7V9H4V7H6ZM19 7C19.5523 7 20 7.44772 20 8C20 8.55228 19.5523 9 19 9H9C8.44772 9 8 8.55228 8 8C8 7.44772 8.44772 7 9 7H19Z" />
  </symbol>

  <symbol id="bookmark-fill" width="24" height="24" viewBox="0 0 24 24" fill="currentColor">
    <path fill-rule="evenodd" clip-rule="evenodd"
      d="M17 2C18.1046 2 19 2.88936 19 3.98644V21.0067C19 21.5553 18.5523 22 18 22C17.6952 22 17.4071 21.8619 17.2174 21.625L12 15.1105L6.7826 21.625C6.43879 22.0543 5.8097 22.1255 5.37748 21.784C5.13897 21.5956 5 21.3094 5 21.0067V3.98644C5 2.88936 5.89543 2 7 2H17Z" />
  </symbol>

  <symbol id="bookmark" width="24" height="24" viewBox="0 0 24 24" fill="currentColor">
    <path fill-rule="evenodd" clip-rule="evenodd"
      d="M17 2C18.1046 2 19 2.88936 19 3.98644V21.0067C19 21.5553 18.5523 22 18 22C17.6952 22 17.4071 21.8619 17.2174 21.625L12 15.1105L6.7826 21.625C6.43879 22.0543 5.8097 22.1255 5.37748 21.784C5.13897 21.5956 5 21.3094 5 21.0067V3.98644C5 2.88936 5.89543 2 7 2H17ZM17 4H7V18.271L12 11.9873L17 18.273V4Z" />
  </symbol>

  <symbol id="burger-menu" width="24" height="24" viewBox="0 0 24 24" fill="currentColor">
    <path fill-rule="evenodd" clip-rule="evenodd"
      d="M4 8C4 7.44772 4.44772 7 5 7H19C19.5523 7 20 7.44772 20 8C20 8.55228 19.5523 9 19 9H5C4.44772 9 4 8.55228 4 8ZM4 12C4 11.4477 4.44772 11 5 11H19C19.5523 11 20 11.4477 20 12C20 12.5523 19.5523 13 19 13H5C4.44772 13 4 12.5523 4 12ZM5 15C4.44772 15 4 15.4477 4 16C4 16.5523 4.44772 17 5 17H19C19.5523 17 20 16.5523 20 16C20 15.4477 19.5523 15 19 15H5Z" />
  </symbol>

  <symbol id="case" width="24" height="24" viewBox="0 0 24 24" fill="currentColor">
    <path fill-rule="evenodd" clip-rule="evenodd"
      d="M14 3C15.1046 3 16 3.89543 16 5V7H19C20.1046 7 21 7.89543 21 9V18C21 19.1046 20.1046 20 19 20H5C3.89543 20 3 19.1046 3 18V9C3 7.89543 3.89543 7 5 7H8V5C8 3.89543 8.89543 3 10 3H14ZM19 9H5V18H19V9ZM14 5H10V7H14V5Z" />
  </symbol>

  <symbol id="case" width="24" height="24" viewBox="0 0 24 24" fill="currentColor">
    <path fill-rule="evenodd" clip-rule="evenodd"
      d="M14 3C15.1046 3 16 3.89543 16 5V7H19C20.1046 7 21 7.89543 21 9V18C21 19.1046 20.1046 20 19 20H5C3.89543 20 3 19.1046 3 18V9C3 7.89543 3.89543 7 5 7H8V5C8 3.89543 8.89543 3 10 3H14ZM19 9H5V18H19V9ZM14 5H10V7H14V5Z" />
  </symbol>

  <symbol id="chat" width="24" height="24" viewBox="0 0 24 24" fill="currentColor">
    <path fill-rule="evenodd" clip-rule="evenodd"
      d="M19 3C20.1046 3 21 3.89543 21 5V17C21 18.1046 20.1046 19 19 19H9L3 22L3 5C3 3.89543 3.89543 3 5 3H19ZM19 5H5V18.468L8.44603 17H19V5ZM11 12V14H7V12H11ZM17 8V10H7V8H17Z" />
  </symbol>

  <symbol id="chevron" width="24" height="24" viewBox="0 0 24 24" fill="currentColor">
    <path fill-rule="evenodd" clip-rule="evenodd"
      d="M6.29289 9.29289C5.93241 9.65338 5.90468 10.2206 6.2097 10.6129L6.29289 10.7071L11.2929 15.7071C11.6534 16.0676 12.2206 16.0953 12.6129 15.7903L12.7071 15.7071L17.7071 10.7071C18.0976 10.3166 18.0976 9.68342 17.7071 9.29289C17.3466 8.93241 16.7794 8.90468 16.3871 9.2097L16.2929 9.29289L12 13.585L7.70711 9.29289C7.34662 8.93241 6.77939 8.90468 6.3871 9.2097L6.29289 9.29289Z" />
  </symbol>

  <symbol id="cloud" width="24" height="24" viewBox="0 0 24 24" fill="currentColor">
    <path fill-rule="evenodd" clip-rule="evenodd"
      d="M12.5 6C15.9334 6 18.7451 8.66207 18.9836 12.0348C20.6879 12.2689 22 13.7312 22 15.5C22 17.433 20.433 19 18.5 19C18.3303 19 18.1633 18.9879 18 18.9646L18 19H7L7.00071 18.9725C6.83631 18.9907 6.66925 19 6.5 19C4.01472 19 2 16.9853 2 14.5C2 12.0147 4.01472 10 6.5 10C7.47744 7.65125 9.79589 6 12.5 6ZM12.5 8C10.7398 8 9.16883 9.01944 8.43395 10.5717L8.34649 10.7684L7.83396 12H6.5C5.11929 12 4 13.1193 4 14.5C4 15.8807 5.11929 17 6.5 17H16.003C16.003 17 18.4264 17 18.5 17C19.3284 17 20 16.3284 20 15.5C20 14.7963 19.5116 14.1964 18.8467 14.0412L18.7115 14.0162L17.1031 13.7953L16.9886 12.1759C16.8228 9.83175 14.865 8 12.5 8Z" />
  </symbol>

  <symbol id="community" width="24" height="24" viewBox="0 0 24 24" fill="currentColor">
    <path fill-rule="evenodd" clip-rule="evenodd"
      d="M19 3C20.1046 3 21 3.89543 21 5V17C21 18.1046 20.1046 19 19 19H9L3 22L3 5C3 3.89543 3.89543 3 5 3H19ZM19 5H5V18.468L8.44603 17H19V5ZM11 12V14H7V12H11ZM17 8V10H7V8H17Z" />
  </symbol>

  <symbol id="eye-crossed-out" width="24" height="24" viewBox="0 0 24 24" fill="currentColor">
    <path fill-rule="evenodd" clip-rule="evenodd"
      d="M19.7071 4.29289C19.3166 3.90237 18.6834 3.90237 18.2929 4.29289L15.5684 7.01736C14.2508 6.33912 13.0613 6 12 6C9.42267 6 6.08934 8 2 12C3.68265 13.6459 5.23731 14.9532 6.66397 15.9218L4.29289 18.2929L4.2097 18.3871C3.90468 18.7794 3.93241 19.3466 4.29289 19.7071C4.68342 20.0976 5.31658 20.0976 5.70711 19.7071L8.43158 16.9826C9.74924 17.6609 10.9387 18 12 18C14.5773 18 17.9107 16 22 12C20.3173 10.3541 18.7627 9.04683 17.336 8.07818L19.7071 5.70711L19.7903 5.6129C20.0953 5.22061 20.0676 4.65338 19.7071 4.29289ZM14.0718 8.51398C13.3589 8.20164 12.7222 8.03277 12.1665 8.00432L12 8C10.4165 8 8.12903 9.20868 5.26355 11.7028L4.926 12L4.95433 12.025C6.09571 13.0405 7.14865 13.8574 8.10553 14.4803L10.0677 12.518C10.0236 12.3528 10 12.1792 10 12C10 10.8954 10.8954 10 12 10C12.1792 10 12.3528 10.0236 12.518 10.0677L14.0718 8.51398ZM13.9323 11.482L15.8945 9.51974C16.8514 10.1426 17.9043 10.9595 19.0457 11.975L19.073 12L18.7364 12.2972C15.871 14.7913 13.5835 16 12 16L11.8335 15.9957C11.2778 15.9672 10.6411 15.7984 9.92819 15.486L11.482 13.9323C11.6472 13.9764 11.8208 14 12 14C13.1046 14 14 13.1046 14 12C14 11.8208 13.9764 11.6472 13.9323 11.482Z" />
  </symbol>

  <symbol id="eye" width="24" height="24" viewBox="0 0 24 24" fill="currentColor">
    <path fill-rule="evenodd" clip-rule="evenodd"
      d="M12 6C14.5773 6 17.9107 8 22 12C17.9107 16 14.5773 18 12 18C9.42267 18 6.08934 16 2 12C6.08934 8 9.42267 6 12 6ZM12 8C10.4165 8 8.12903 9.20868 5.26355 11.7028L4.926 12L4.95433 12.025C7.86439 14.6142 10.1996 15.912 11.8335 15.9957L12 16C13.5835 16 15.871 14.7913 18.7364 12.2972L19.073 12L19.0457 11.975C16.1356 9.38584 13.8004 8.08797 12.1665 8.00432L12 8ZM12 10C13.1046 10 14 10.8954 14 12C14 13.1046 13.1046 14 12 14C10.8954 14 10 13.1046 10 12C10 10.8954 10.8954 10 12 10Z" />
  </symbol>

  <symbol id="flag-fill" width="24" height="24" viewBox="0 0 24 24" fill="currentColor">
    <path fill-rule="evenodd" clip-rule="evenodd"
      d="M16 9L19 5H5V13V19C5 19.5523 5.44772 20 6 20C6.55228 20 7 19.5523 7 19V13H19L16 9Z" />
  </symbol>

  <symbol id="star-fill" width="24" height="24" viewBox="0 0 24 24" fill="currentColor">
    <path fill-rule="evenodd" clip-rule="evenodd"
      d="M12.393 3.08026C12.6263 3.17944 12.8122 3.36304 12.9126 3.59335L14.9554 8.27719L20.098 8.74815C20.6445 8.79819 21.0464 9.27618 20.9957 9.81576C20.9722 10.0654 20.8529 10.2968 20.6621 10.4623L16.782 13.828L17.9175 18.8029C18.0382 19.3316 17.702 19.8567 17.1666 19.9758C16.9189 20.031 16.6591 19.9904 16.4408 19.8623L12 17.2586L7.55917 19.8623C7.08728 20.139 6.4776 19.9856 6.19741 19.5196C6.06775 19.304 6.02662 19.0476 6.08245 18.8029L7.21798 13.828L3.33788 10.4623C2.92558 10.1046 2.88497 9.48469 3.24717 9.07757C3.41477 8.88918 3.64907 8.77131 3.90194 8.74815L9.04454 8.27719L11.0873 3.59335C11.3044 3.09565 11.889 2.86593 12.393 3.08026Z" />
  </symbol>

  <symbol id="star" width="24" height="24" viewBox="0 0 24 24" fill="currentColor">
    <path fill-rule="evenodd" clip-rule="evenodd"
      d="M12.393 3.08026C12.6263 3.17944 12.8122 3.36304 12.9126 3.59335L14.9554 8.27719L20.098 8.74815C20.6445 8.79819 21.0464 9.27618 20.9957 9.81576C20.9722 10.0654 20.8529 10.2968 20.6621 10.4623L16.782 13.828L17.9175 18.8029C18.0382 19.3316 17.702 19.8567 17.1666 19.9758C16.9189 20.031 16.6591 19.9904 16.4408 19.8623L12 17.2586L7.55917 19.8623C7.08728 20.139 6.4776 19.9856 6.19741 19.5196C6.06775 19.304 6.02662 19.0476 6.08245 18.8029L7.21798 13.828L3.33788 10.4623C2.92558 10.1046 2.88497 9.48469 3.24717 9.07757C3.41477 8.88918 3.64907 8.77131 3.90194 8.74815L9.04454 8.27719L11.0873 3.59335C11.3044 3.09565 11.889 2.86593 12.393 3.08026ZM13.5968 10.1236L12 6.46162L10.4031 10.1236L6.38164 10.4914L9.4162 13.1228L8.52801 17.0114L12 14.9764L15.4709 17.0114L14.5838 13.1228L17.6173 10.4914L13.5968 10.1236Z" />
  </symbol>

  <symbol id="statistic" width="24" height="24" viewBox="0 0 24 24" fill="currentColor">
    <path fill-rule="evenodd" clip-rule="evenodd"
      d="M18.7857 19C19.4563 19 20 19.4477 20 20C20 20.5523 19.4563 21 18.7857 21H4.21429C3.54365 21 3 20.5523 3 20C3 19.4477 3.54365 19 4.21429 19H18.7857ZM18 3C19.1046 3 20 3.89543 20 5V17H3V13C3 11.8954 3.89543 11 5 11H8V9C8 7.89543 8.89543 7 10 7H13V5C13 3.89543 13.8954 3 15 3H18ZM8 13H5V15H8V13ZM13 9H10V15H13V9ZM18 5H15V15H18V5Z" />
  </symbol>

  <symbol id="truck" width="24" height="24" viewBox="0 0 24 24" fill="currentColor">
    <path fill-rule="evenodd" clip-rule="evenodd"
      d="M13 4C14.1046 4 15 4.89543 15 6V7H19.618L22 11.7639V17H20C20 18.6569 18.6569 20 17 20C15.3431 20 14 18.6569 14 17H10C10 18.6569 8.65685 20 7 20C5.34315 20 4 18.6569 4 17H2V6C2 4.89543 2.89543 4 4 4H13ZM7 16C6.72386 16 6 16 6 16C6 16 6 16.7239 6 17C6 17.2761 6 18 6 18C6 18 6.72386 18 7 18C7.27614 18 8 18 8 18C8 18 8 17.2761 8 17C8 16.7239 8 16 8 16C8 16 7.27614 16 7 16ZM17 16C16.7449 16 16 16 16 16V17C16 17.2761 16 18 16 18C16 18 16.7239 18 17 18C17.2761 18 18 18 18 18C18 18 18 17.2761 18 17C18 16.7239 18 16 18 16C18 16 17.2761 16 17 16ZM13 6H4V15L4.76381 15.0001C5.31313 14.3863 6.11145 14 7 14C7.88855 14 8.68687 14.3863 9.23619 15.0001L13 15V6ZM18.381 9H15L15.0001 14.7638C15.5308 14.2888 16.2317 14 17 14C17.8885 14 18.6869 14.3863 19.2362 15.0001L20 15V12.237L18.381 9Z" />
  </symbol>

  <symbol id="unlock" width="24" height="24" viewBox="0 0 24 24" fill="currentColor">
    <path fill-rule="evenodd" clip-rule="evenodd"
      d="M17 9C18.1046 9 19 9.89543 19 11V18C19 19.1046 18.1046 20 17 20H7C5.89543 20 5 19.1046 5 18V11C5 9.89543 5.89543 9 7 9H8V5C8 3.89543 8.89543 3 10 3H14C15.1046 3 16 3.89543 16 5V6H15C14.4477 6 14 5.55228 14 5H10V9H17ZM17 11H7V18H17V11ZM13 14V16H11V14H13Z" />
  </symbol>

  <symbol id="update" width="24" height="24" viewBox="0 0 24 24" fill="currentColor">
    <path fill-rule="evenodd" clip-rule="evenodd"
      d="M12 2C15.866 2 19 5.13401 19 9C19 11.3782 17.8141 13.4793 16.0013 14.7444L16 22L12 19L8 22L7.99967 14.7451C6.18637 13.4801 5 11.3786 5 9C5 5.13401 8.13401 2 12 2ZM14 16H10V18L12 17L14 18V16ZM12 4C9.23858 4 7 6.23858 7 9C7 11.7614 9.23858 14 12 14C14.7614 14 17 11.7614 17 9C17 6.23858 14.7614 4 12 4Z" />
  </symbol>

  <symbol id="user" width="24" height="24" viewBox="0 0 24 24" fill="currentColor">
    <path fill-rule="evenodd" clip-rule="evenodd"
      d="M12 12C16.3349 12 19.8645 15.4478 19.9962 19.7508L20 20V21H4V20C4 15.5817 7.58172 12 12 12ZM12 14C9.14444 14 6.75479 15.9948 6.14861 18.667L6.10104 18.8977L6.084 19H17.915L17.899 18.8977C17.4095 16.2618 15.1969 14.2312 12.4739 14.0184L12.2249 14.0041L12 14ZM12 3C14.2091 3 16 4.79086 16 7C16 9.20914 14.2091 11 12 11C9.79086 11 8 9.20914 8 7C8 4.79086 9.79086 3 12 3ZM12 5C10.8954 5 10 5.89543 10 7C10 8.10457 10.8954 9 12 9C13.1046 9 14 8.10457 14 7C14 5.89543 13.1046 5 12 5Z" />
  </symbol>

  <symbol id="users" width="24" height="24" viewBox="0 0 24 24" fill="currentColor">
    <path fill-rule="evenodd" clip-rule="evenodd"
      d="M17 11C19.0871 11 20.9253 12.0656 22.0002 13.6825L21.9993 17H14L13.999 18.952L14.0215 20H2V19C2 15.6863 4.68629 13 8 13C9.37834 13 10.6509 13.4657 11.6662 14.2518C12.662 12.3204 14.6768 11 17 11ZM8 15C6.26204 15 4.78296 16.1084 4.23109 17.6569L4.16936 17.8447L4.126 18H11.873L11.8362 17.8625C11.3827 16.3295 10.0355 15.1846 8.4051 15.0203L8.19987 15.0049L8 15ZM17 13C15.6048 13 14.3764 13.7144 13.6606 14.7973L13.535 15H20.464L20.3707 14.845C19.6927 13.7872 18.5304 13.0708 17.2007 13.005L17 13ZM8 4C10.2091 4 12 5.79086 12 8C12 10.2091 10.2091 12 8 12C5.79086 12 4 10.2091 4 8C4 5.79086 5.79086 4 8 4ZM17 4C18.6569 4 20 5.34315 20 7C20 8.65685 18.6569 10 17 10C15.3431 10 14 8.65685 14 7C14 5.34315 15.3431 4 17 4ZM8 6C6.89543 6 6 6.89543 6 8C6 9.10457 6.89543 10 8 10C9.10457 10 10 9.10457 10 8C10 6.89543 9.10457 6 8 6ZM17 6C16.7239 6 16 6 16 6C16 6 16 6.72386 16 7C16 7.27614 16 8 16 8C16 8 16.7239 8 17 8C17.2761 8 18 8 18 8C18 8 18 7.27614 18 7C18 6.86441 18 6 18 6C18 6 17.1356 6 17 6Z" />
  </symbol>

  <symbol id="flag" width="24" height="24" viewBox="0 0 24 24" fill="currentColor">
    <path fill-rule="evenodd" clip-rule="evenodd"
      d="M19 5L16 9L19 13H7V19C7 19.5523 6.55228 20 6 20C5.44772 20 5 19.5523 5 19V13V5H19ZM15 7H7V11H15L13.5 9L15 7Z" />
  </symbol>

  <symbol id="folder" width="24" height="24" viewBox="0 0 24 24" fill="currentColor">
    <path fill-rule="evenodd" clip-rule="evenodd"
      d="M9.5 2L12 5H20C21.1046 5 22 5.89543 22 7V19C22 20.1046 21.1046 21 20 21H4C2.89543 21 2 20.1046 2 19V4C2 2.89543 2.89543 2 4 2H9.5ZM11.0632 7L8.563 4H4V19H20V7H11.0632Z" />
  </symbol>

  <symbol id="global" width="24" height="24" viewBox="0 0 24 24" fill="currentColor">
    <path fill-rule="evenodd" clip-rule="evenodd"
      d="M12 2C17.5228 2 22 6.47715 22 12C22 17.5228 17.5228 22 12 22C6.47715 22 2 17.5228 2 12C2 6.47715 6.47715 2 12 2ZM19.938 13.001L16.9529 13.0001C16.7049 15.6183 15.4929 17.9639 13.6664 19.6959L13.8393 19.7878C17.0549 19.0308 19.5219 16.3344 19.938 13.001ZM7.04714 13.0001L4.06201 13.001C4.4781 16.3344 6.94513 19.0308 10.1604 19.7875L10.3347 19.6967C8.50717 17.9639 7.29516 15.6183 7.04714 13.0001ZM14.9422 13.0012H9.05787C9.31327 15.1963 10.3983 17.1459 11.9996 18.5443C13.6022 17.145 14.6868 15.1958 14.9422 13.0012ZM4.06189 11L7.04706 11.0007C7.29489 8.38213 8.50702 6.03615 10.3338 4.30387L10.1604 4.21252C7.03413 4.94821 4.61525 7.51777 4.10125 10.7237L4.06189 11ZM12.0014 5.45653L11.862 5.57831C10.3359 6.96735 9.30535 8.8681 9.05768 11.0004H14.9424C14.7001 8.91487 13.709 7.05083 12.2377 5.67043L12.0014 5.45653ZM13.8396 4.21252L13.6653 4.30318C15.493 6.03615 16.7051 8.38213 16.953 11.0007L19.9381 11C19.5224 7.66609 17.0552 4.96923 13.8396 4.21252Z" />
  </symbol>

  <symbol id="go-back" width="13" height="10" viewBox="0 0 13 10" fill="currentColor">
    <path fill-rule="evenodd" clip-rule="evenodd"
      d="M4.3871 0.209705L4.29289 0.292893L0.292893 4.29289C-0.0675907 4.65338 -0.0953203 5.22061 0.209705 5.6129L0.292893 5.70711L4.29289 9.70711C4.68342 10.0976 5.31658 10.0976 5.70711 9.70711C6.06759 9.34662 6.09532 8.77939 5.7903 8.3871L5.70711 8.29289L3.414 5.999L12 6C12.5523 6 13 5.55228 13 5C13 4.44772 12.5523 4 12 4L3.416 3.999L5.70711 1.70711C6.06759 1.34662 6.09532 0.779392 5.7903 0.387101L5.70711 0.292893C5.34662 -0.0675907 4.77939 -0.0953203 4.3871 0.209705Z" />
  </symbol>

  <symbol id="guard" width="24" height="24" viewBox="0 0 24 24" fill="currentColor">
    <path fill-rule="evenodd" clip-rule="evenodd"
      d="M12 2L18.7022 4.51334C19.4829 4.80607 20 5.55231 20 6.386V14C20 18.4183 12 22 12 22C12 22 4 18.4183 4 14V6.386C4 5.55231 4.51715 4.80607 5.29775 4.51334L12 2ZM12 4.135L6 6.386V14C6 17.3137 12 20 12 20C12 20 17.8776 17.4344 17.9959 14.2249L18 14V6.386L12 4.135ZM15.648 8L17 9.39012L10.544 16L7 12.356L8.35199 10.9659L10.544 13.219L15.648 8Z" />
  </symbol>

  <symbol id="heart-fill" width="24" height="24" viewBox="0 0 24 24" fill="currentColor">
    <path fill-rule="evenodd" clip-rule="evenodd"
      d="M12.291 4.66437L12 5.09089L11.6431 4.56741L11.5555 4.48829C9.37118 2.51441 5.70958 2.65269 3.61316 4.7637C1.46228 6.92956 1.46228 10.4277 3.61316 12.5936L12 20.9998L20.3868 12.5936C22.5377 10.4277 22.5377 6.92956 20.3868 4.7637C18.1861 2.54766 14.5504 2.36567 12.4059 4.52513L12.291 4.66437Z" />
  </symbol>

  <symbol id="lock" width="24" height="24" viewBox="0 0 24 24" fill="currentColor">
    <path fill-rule="evenodd" clip-rule="evenodd"
      d="M14 3C15.1046 3 16 3.89543 16 5V9H17C18.1046 9 19 9.89543 19 11V18C19 19.1046 18.1046 20 17 20H7C5.89543 20 5 19.1046 5 18V11C5 9.89543 5.89543 9 7 9H8V5C8 3.89543 8.89543 3 10 3H14ZM17 11H7V18H17V11ZM13 14V16H11V14H13ZM14 5H10V9H14V5Z" />
  </symbol>

  <symbol id="logo" width="42" height="38" viewBox="0 0 42 38" fill="currentColor">
    <path
      d="M28.473 18.908C28.3856 18.9779 28.3372 18.994 28.3278 18.9564C27.4771 18.9416 26.6265 18.9342 25.7758 18.9342C24.577 18.9342 23.7277 18.8959 23.2278 18.8193C21.2832 18.5223 19.6288 17.7166 18.2648 16.4023C15.4681 13.7065 14.6302 10.3299 15.751 6.27273C15.88 6.0362 16.005 5.78624 16.126 5.52284C17.4463 2.67849 19.8674 0.821902 22.9375 0.140549C23.3071 0.0585716 23.9454 0.0162388 24.8525 0.013551C29.1664 -0.00123178 33.4346 -0.00391975 37.6571 0.0054875C37.8211 0.0054875 37.8661 0.0787296 37.7922 0.225214L28.473 18.908Z"
      fill="#6C72FF" />
    <path
      d="M15.751 6.27271C14.6302 10.3299 15.4681 13.7064 18.2648 16.4023C19.6288 17.7166 21.2831 18.5223 23.2277 18.8193C23.7277 18.8959 24.577 18.9342 25.7758 18.9342C26.6264 18.9342 27.4771 18.9416 28.3278 18.9564L18.8917 38L0.108104 37.9939C0.0896412 37.9938 0.071515 37.989 0.0554287 37.9799C0.0393425 37.9708 0.0258242 37.9578 0.0161477 37.9421C0.00647116 37.9264 0.000953335 37.9085 0.000112865 37.89C-0.000727604 37.8716 0.00313678 37.8532 0.0113431 37.8367L15.751 6.27271Z"
      fill="#D0D0FB" />
    <path
      d="M18.8916 38L28.3277 18.9564C28.3371 18.994 28.3855 18.9779 28.4729 18.908C29.6649 18.8986 30.8442 18.8939 32.0107 18.8939C33.2242 18.8953 34.4922 19.1997 35.8146 19.8071C40.1466 21.7987 42.2592 26.7396 40.8582 31.2913C39.8684 34.5026 37.1692 37.0506 33.8249 37.7823C33.161 37.9275 32.1457 38 30.779 38C26.8548 37.9987 22.8924 37.9987 18.8916 38Z"
      fill="#212D9D" />
  </symbol>

  <symbol id="mark-place" width="24" height="24" viewBox="0 0 24 24" fill="currentColor">
    <path fill-rule="evenodd" clip-rule="evenodd"
      d="M12 2C15.866 2 19 5.19203 19 9.1296C19 11.4308 17.2068 15.1065 13.6205 20.1566C13.4959 20.3322 13.3445 20.4864 13.1721 20.6134C12.3219 21.2397 11.151 21.0865 10.481 20.2881L10.3795 20.1566L10.0926 19.7502C6.69754 14.9088 5 11.3686 5 9.1296C5 5.19203 8.13401 2 12 2ZM12 4.03703C9.23858 4.03703 7 6.31705 7 9.1296C7 10.7607 8.4691 13.8711 11.4497 18.1781L11.7166 18.5612L11.999 18.9613L12.2678 18.5834L12.7958 17.8207C15.5278 13.82 16.9169 10.8958 16.9964 9.27372L17 9.1296C17 6.31705 14.7614 4.03703 12 4.03703ZM12 7C13.1046 7 14 7.89543 14 9C14 10.1046 13.1046 11 12 11C10.8954 11 10 10.1046 10 9C10 7.89543 10.8954 7 12 7Z" />
  </symbol>

  <symbol id="settings" width="24" height="24" viewBox="0 0 24 24" fill="currentColor">
    <path fill-rule="evenodd" clip-rule="evenodd"
      d="M13.5 2L16 5L20 5.5L22 8.5L20 12L22 15.5L20 18.5L16 19L13.5 22H10.5L8 19L4 18.5L2 15.5L4 12L2 8.5L4 5.5L8 5L10.5 2H13.5ZM12.562 3.999H11.437L9.0312 6.88666L5.156 7.37L4.35 8.581L6.3035 12L4.35 15.418L5.156 16.629L9.0312 17.1133L11.436 19.999H12.563L14.9688 17.1133L18.843 16.629L19.649 15.418L17.6965 12L19.649 8.581L18.843 7.37L14.9688 6.88666L12.562 3.999ZM12 8C14.2091 8 16 9.79086 16 12C16 14.2091 14.2091 16 12 16C9.79086 16 8 14.2091 8 12C8 9.79086 9.79086 8 12 8ZM12 10C10.8954 10 10 10.8954 10 12C10 13.1046 10.8954 14 12 14C13.1046 14 14 13.1046 14 12C14 10.8954 13.1046 10 12 10Z" />
  </symbol>

  <symbol id="search" width="24" height="24" viewBox="0 0 24 24" fill="currentColor">
    <path fill-rule="evenodd" clip-rule="evenodd"
      d="M10.5 3C14.6421 3 18 6.35786 18 10.5C18 12.2101 17.4276 13.7866 16.464 15.0483L19.7071 18.2929C20.0976 18.6834 20.0976 19.3166 19.7071 19.7071C19.3466 20.0676 18.7794 20.0953 18.3871 19.7903L18.2929 19.7071L15.0483 16.464C13.7866 17.4276 12.2101 18 10.5 18C6.35786 18 3 14.6421 3 10.5C3 6.35786 6.35786 3 10.5 3ZM10.5 5C7.46243 5 5 7.46243 5 10.5C5 13.5376 7.46243 16 10.5 16C11.8511 16 13.0885 15.5128 14.0459 14.7045C14.091 14.5536 14.1738 14.412 14.2929 14.2929C14.412 14.1738 14.5536 14.091 14.7041 14.0446C15.5128 13.0885 16 11.8511 16 10.5C16 7.46243 13.5376 5 10.5 5Z" />
  </symbol>

  <symbol id="question-in-circle" width="24" height="24" viewBox="0 0 24 24" fill="currentColor">
    <path fill-rule="evenodd" clip-rule="evenodd"
      d="M12 2C17.5228 2 22 6.47715 22 12C22 17.5228 17.5228 22 12 22C6.47715 22 2 17.5228 2 12C2 6.47715 6.47715 2 12 2ZM12 4C7.58172 4 4 7.58172 4 12C4 16.4183 7.58172 20 12 20C16.4183 20 20 16.4183 20 12C20 7.58172 16.4183 4 12 4ZM16 10C16 7.79086 14.2091 6 12 6C9.79086 6 8 7.79086 8 10H10L10.0055 9.85074C10.0818 8.81588 10.9456 8 12 8C13.1046 8 14 8.89543 14 10C14 11.1046 13.1046 12 12 12C11.4477 12 11 12.4477 11 13V14C11 14.5523 11.4477 15 12 15C12.5523 15 13 14.5523 13 14V13.874C14.7252 13.4299 16 11.8638 16 10ZM13 18V16H11V18H13Z" />
  </symbol>

  <symbol id="notification" width="24" height="24" viewBox="0 0 24 24" fill="currentColor">
    <path fill-rule="evenodd" clip-rule="evenodd"
      d="M13 3C15.2816 3.46373 17 5.58146 17 8V12C18.1046 12 19 12.8954 19 14V19H14C14 20.1046 13.1046 21 12 21C10.8954 21 10 20.1046 10 19H5V14C5 12.8954 5.89543 12 7 12V8C7 5.58111 8.71785 3.46334 11 3H13ZM12 5C10.4023 5 9.09634 6.24892 9.00509 7.82373L9 8V12C9 13.1046 8.10457 14 7 14V17H17V14C15.8954 14 15 13.1046 15 12V8C15 6.34315 13.6569 5 12 5Z" />
  </symbol>

  <symbol id="notes" width="24" height="24" viewBox="0 0 24 24" fill="currentColor">
    <path fill-rule="evenodd" clip-rule="evenodd"
      d="M11.5459 3.57029C11.9641 3.15205 12.5498 2.9466 13.1377 3.01192L21 3L20.9881 10.8623C21.0534 11.4502 20.848 12.0359 20.4297 12.4541L11.4541 21.4297C10.6937 22.1901 9.46093 22.1901 8.70056 21.4297L2.57027 15.2994C1.80991 14.5391 1.80991 13.3063 2.57027 12.5459L11.5459 3.57029ZM13 5L3.94704 13.9227L10.0773 20.053L19 11V5H13ZM14 8L16 10L14 12L12 10L14 8Z" />
  </symbol>

  <symbol id="heart" width="24" height="24" viewBox="0 0 24 24" fill="currentColor">
    <path fill-rule="evenodd" clip-rule="evenodd"
      d="M12.291 4.66437L12 5.09089L11.6431 4.56741L11.5555 4.48829C9.37118 2.51441 5.70958 2.65269 3.61316 4.7637C1.46228 6.92956 1.46228 10.4277 3.61316 12.5936L12 20.9998L20.3868 12.5936C22.5377 10.4277 22.5377 6.92956 20.3868 4.7637C18.1861 2.54766 14.5504 2.36567 12.4059 4.52513L12.291 4.66437ZM19.0934 6.27043C20.3487 7.69085 20.3004 9.88016 18.9485 11.2414L12.098 18.1393L11.899 18.1364L5.05145 11.2414C3.64952 9.82975 3.64952 7.52755 5.05145 6.11585L5.19975 5.97539C6.51884 4.80011 8.69641 4.71763 10.0429 5.78576L10.114 5.84591L12 8.61912L13.902 5.82159L13.8441 5.87728C15.1683 4.54389 17.5035 4.66077 18.9485 6.11585L19.0934 6.27043Z" />
  </symbol>

</svg>